{
  "accessors": [
    {
      "bufferView": 2,
      "componentType": 5126,
      "count": 65532,
      "max": [
        0.988303005695343,
        0.47996699810028076,
        0.6594989895820618
      ],
      "min": [
        -0.9941759705543518,
        -0.6938049793243408,
        0.30660098791122437
      ],
      "type": "VEC3"
    },
    {
      "bufferView": 2,
      "byteOffset": 786384,
      "componentType": 5126,
      "count": 65532,
      "max": [
        0.9999998807907104,
        0.9999997615814209,
        1.0
      ],
      "min": [
        -0.999994158744812,
        -1.0,
        -0.9999260902404785
      ],
      "type": "VEC3"
    },
    {
      "bufferView": 1,
      "componentType": 5126,
      "count": 65532,
      "max": [
        0.9968180060386658,
        0.9998360276222229
      ],
      "min": [
        0.00010099999781232327,
        0.006106972694396973
      ],
      "type": "VEC2"
    },
    {
      "bufferView": 1,
      "byteOffset": 524256,
      "componentType": 5126,
      "count": 65532,
      "max": [
        0.9968180060386658,
        0.9998360276222229
      ],
      "min": [
        0.00010099999781232327,
        0.006106972694396973
      ],
      "type": "VEC2"
    },
    {
      "bufferView": 1,
      "byteOffset": 1048512,
      "componentType": 5126,
      "count": 65532,
      "max": [
        0.9968180060386658,
        0.9998360276222229
      ],
      "min": [
        0.00010099999781232327,
        0.006106972694396973
      ],
      "type": "VEC2"
    },
    {
      "bufferView": 1,
      "byteOffset": 1572768,
      "componentType": 5126,
      "count": 65532,
      "max": [
        0.9968180060386658,
        0.9998360276222229
      ],
      "min": [
        0.00010099999781232327,
        0.006106972694396973
      ],
      "type": "VEC2"
    },
    {
      "bufferView": 0,
      "componentType": 5125,
      "count": 353196,
      "type": "SCALAR"
    },
    {
      "bufferView": 2,
      "byteOffset": 1572768,
      "componentType": 5126,
      "count": 65532,
      "max": [
        0.9979469776153564,
        0.7034479975700378,
        0.5172269940376282
      ],
      "min": [
        -0.9938799738883972,
        -0.6934220194816589,
        -0.4722920060157776
      ],
      "type": "VEC3"
    },
    {
      "bufferView": 2,
      "byteOffset": 2359152,
      "componentType": 5126,
      "count": 65532,
      "max": [
        0.9999996423721313,
        1.0,
        1.0
      ],
      "min": [
        -1.0,
        -1.0,
        -0.9999916553497314
      ],
      "type": "VEC3"
    },
    {
      "bufferView": 1,
      "byteOffset": 2097024,
      "componentType": 5126,
      "count": 65532,
      "max": [
        0.9999690055847168,
        0.996749997138977
      ],
      "min": [
        1.9999999949504854e-06,
        0.004664003849029541
      ],
      "type": "VEC2"
    },
    {
      "bufferView": 1,
      "byteOffset": 2621280,
      "componentType": 5126,
      "count": 65532,
      "max": [
        0.9999690055847168,
        0.996749997138977
      ],
      "min": [
        1.9999999949504854e-06,
        0.004664003849029541
      ],
      "type": "VEC2"
    },
    {
      "bufferView": 1,
      "byteOffset": 3145536,
      "componentType": 5126,
      "count": 65532,
      "max": [
        0.9999690055847168,
        0.996749997138977
      ],
      "min": [
        1.9999999949504854e-06,
        0.004664003849029541
      ],
      "type": "VEC2"
    },
    {
      "bufferView": 1,
      "byteOffset": 3669792,
      "componentType": 5126,
      "count": 65532,
      "max": [
        0.9999690055847168,
        0.996749997138977
      ],
      "min": [
        1.9999999949504854e-06,
        0.004664003849029541
      ],
      "type": "VEC2"
    },
    {
      "bufferView": 0,
      "byteOffset": 1412784,
      "componentType": 5125,
      "count": 336300,
      "type": "SCALAR"
    },
    {
      "bufferView": 2,
      "byteOffset": 3145536,
      "componentType": 5126,
      "count": 65532,
      "max": [
        0.9959290027618408,
        0.7034479975700378,
        -0.17685499787330627
      ],
      "min": [
        -0.9887369871139526,
        -0.692816972732544,
        -0.6311529874801636
      ],
      "type": "VEC3"
    },
    {
      "bufferView": 2,
      "byteOffset": 3931920,
      "componentType": 5126,
      "count": 65532,
      "max": [
        1.0,
        1.0,
        0.9999985694885254
      ],
      "min": [
        -0.9999997615814209,
        -1.0,
        -1.0
      ],
      "type": "VEC3"
    },
    {
      "bufferView": 1,
      "byteOffset": 4194048,
      "componentType": 5126,
      "count": 65532,
      "max": [
        0.9999269843101501,
        0.9989870190620422
      ],
      "min": [
        9.999999974752427e-07,
        0.0022230148315429688
      ],
      "type": "VEC2"
    },
    {
      "bufferView": 1,
      "byteOffset": 4718304,
      "componentType": 5126,
      "count": 65532,
      "max": [
        0.9999269843101501,
        0.9989870190620422
      ],
      "min": [
        9.999999974752427e-07,
        0.0022230148315429688
      ],
      "type": "VEC2"
    },
    {
      "bufferView": 1,
      "byteOffset": 5242560,
      "componentType": 5126,
      "count": 65532,
      "max": [
        0.9999269843101501,
        0.9989870190620422
      ],
      "min": [
        9.999999974752427e-07,
        0.0022230148315429688
      ],
      "type": "VEC2"
    },
    {
      "bufferView": 1,
      "byteOffset": 5766816,
      "componentType": 5126,
      "count": 65532,
      "max": [
        0.9999269843101501,
        0.9989870190620422
      ],
      "min": [
        9.999999974752427e-07,
        0.0022230148315429688
      ],
      "type": "VEC2"
    },
    {
      "bufferView": 0,
      "byteOffset": 2757984,
      "componentType": 5125,
      "count": 340284,
      "type": "SCALAR"
    },
    {
      "bufferView": 2,
      "byteOffset": 4718304,
      "componentType": 5126,
      "count": 65532,
      "max": [
        0.9946370124816895,
        0.6490280032157898,
        0.03494099900126457
      ],
      "min": [
        -0.9975519776344299,
        -0.6926519870758057,
        -0.6675170063972473
      ],
      "type": "VEC3"
    },
    {
      "bufferView": 2,
      "byteOffset": 5504688,
      "componentType": 5126,
      "count": 65532,
      "max": [
        0.9999986886978149,
        1.0,
        0.9997010827064514
      ],
      "min": [
        -0.9999998807907104,
        -0.9999998807907104,
        -1.0
      ],
      "type": "VEC3"
    },
    {
      "bufferView": 1,
      "byteOffset": 6291072,
      "componentType": 5126,
      "count": 65532,
      "max": [
        0.9998040199279785,
        0.9997619986534119
      ],
      "min": [
        3.999999989900971e-06,
        0.002074003219604492
      ],
      "type": "VEC2"
    },
    {
      "bufferView": 1,
      "byteOffset": 6815328,
      "componentType": 5126,
      "count": 65532,
      "max": [
        0.9998040199279785,
        0.9997619986534119
      ],
      "min": [
        3.999999989900971e-06,
        0.002074003219604492
      ],
      "type": "VEC2"
    },
    {
      "bufferView": 1,
      "byteOffset": 7339584,
      "componentType": 5126,
      "count": 65532,
      "max": [
        0.9998040199279785,
        0.9997619986534119
      ],
      "min": [
        3.999999989900971e-06,
        0.002074003219604492
      ],
      "type": "VEC2"
    },
    {
      "bufferView": 1,
      "byteOffset": 7863840,
      "componentType": 5126,
      "count": 65532,
      "max": [
        0.9998040199279785,
        0.9997619986534119
      ],
      "min": [
        3.999999989900971e-06,
        0.002074003219604492
      ],
      "type": "VEC2"
    },
    {
      "bufferView": 0,
      "byteOffset": 4119120,
      "componentType": 5125,
      "count": 344859,
      "type": "SCALAR"
    },
    {
      "bufferView": 2,
      "byteOffset": 6291072,
      "componentType": 5126,
      "count": 65532,
      "max": [
        0.9979469776153564,
        0.7237970232963562,
        0.4161140024662018
      ],
      "min": [
        -0.9975519776344299,
        -0.6635199785232544,
        -0.19271999597549438
      ],
      "type": "VEC3"
    },
    {
      "bufferView": 2,
      "byteOffset": 7077456,
      "componentType": 5126,
      "count": 65532,
      "max": [
        1.0,
        1.0,
        0.999998152256012
      ],
      "min": [
        -1.0,
        -1.0,
        -0.9999988079071045
      ],
      "type": "VEC3"
    },
    {
      "bufferView": 1,
      "byteOffset": 8388096,
      "componentType": 5126,
      "count": 65532,
      "max": [
        0.9999780058860779,
        0.9983479976654053
      ],
      "min": [
        9.000000318337698e-06,
        0.0021799802780151367
      ],
      "type": "VEC2"
    },
    {
      "bufferView": 1,
      "byteOffset": 8912352,
      "componentType": 5126,
      "count": 65532,
      "max": [
        0.9999780058860779,
        0.9983479976654053
      ],
      "min": [
        9.000000318337698e-06,
        0.0021799802780151367
      ],
      "type": "VEC2"
    },
    {
      "bufferView": 1,
      "byteOffset": 9436608,
      "componentType": 5126,
      "count": 65532,
      "max": [
        0.9999780058860779,
        0.9983479976654053
      ],
      "min": [
        9.000000318337698e-06,
        0.0021799802780151367
      ],
      "type": "VEC2"
    },
    {
      "bufferView": 1,
      "byteOffset": 9960864,
      "componentType": 5126,
      "count": 65532,
      "max": [
        0.9999780058860779,
        0.9983479976654053
      ],
      "min": [
        9.000000318337698e-06,
        0.0021799802780151367
      ],
      "type": "VEC2"
    },
    {
      "bufferView": 0,
      "byteOffset": 5498556,
      "componentType": 5125,
      "count": 340755,
      "type": "SCALAR"
    },
    {
      "bufferView": 2,
      "byteOffset": 7863840,
      "componentType": 5126,
      "count": 43192,
      "max": [
        0.9876180291175842,
        0.6886749863624573,
        0.4704259932041168
      ],
      "min": [
        -0.9938390254974365,
        -0.6937990188598633,
        0.12000100314617157
      ],
      "type": "VEC3"
    },
    {
      "bufferView": 2,
      "byteOffset": 8382144,
      "componentType": 5126,
      "count": 43192,
      "max": [
        0.9999995231628418,
        0.9999991655349731,
        0.9999916553497314
      ],
      "min": [
        -1.0,
        -1.0,
        -0.9999933242797852
      ],
      "type": "VEC3"
    },
    {
      "bufferView": 1,
      "byteOffset": 10485120,
      "componentType": 5126,
      "count": 43192,
      "max": [
        0.9999989867210388,
        1.0
      ],
      "min": [
        0.0,
        0.0021269917488098145
      ],
      "type": "VEC2"
    },
    {
      "bufferView": 1,
      "byteOffset": 10830656,
      "componentType": 5126,
      "count": 43192,
      "max": [
        0.9999989867210388,
        1.0
      ],
      "min": [
        0.0,
        0.0021269917488098145
      ],
      "type": "VEC2"
    },
    {
      "bufferView": 1,
      "byteOffset": 11176192,
      "componentType": 5126,
      "count": 43192,
      "max": [
        0.9999989867210388,
        1.0
      ],
      "min": [
        0.0,
        0.0021269917488098145
      ],
      "type": "VEC2"
    },
    {
      "bufferView": 1,
      "byteOffset": 11521728,
      "componentType": 5126,
      "count": 43192,
      "max": [
        0.9999989867210388,
        1.0
      ],
      "min": [
        0.0,
        0.0021269917488098145
      ],
      "type": "VEC2"
    },
    {
      "bufferView": 0,
      "byteOffset": 6861576,
      "componentType": 5125,
      "count": 206952,
      "type": "SCALAR"
    }
  ],
  "asset": {
    "extras": {
      "author": "3dUVpro (https://sketchfab.com/3dUVpro)",
      "license": "CC-BY-4.0 (http://creativecommons.org/licenses/by/4.0/)",
      "source": "https://sketchfab.com/3d-models/skrzynia-skarbow-9ac51ad9f76741f5930d74f3c9674c6d",
      "title": "Skrzynia skarbów"
    },
    "generator": "Sketchfab-16.73.0",
    "version": "2.0"
  },
  "bufferViews": [
    {
      "buffer": 0,
      "byteLength": 7689384,
      "name": "floatBufferViews",
      "target": 34963
    },
    {
      "buffer": 0,
      "byteLength": 11867264,
      "byteOffset": 7689384,
      "byteStride": 8,
      "name": "floatBufferViews",
      "target": 34962
    },
    {
      "buffer": 0,
      "byteLength": 8900448,
      "byteOffset": 19556648,
      "byteStride": 12,
      "name": "floatBufferViews",
      "target": 34962
    }
  ],
  "buffers": [
    {
      "byteLength": 28457096,
      "uri": "scene.bin"
    }
  ],
  "extensionsRequired": [
    "KHR_materials_pbrSpecularGlossiness"
  ],
  "extensionsUsed": [
    "KHR_materials_pbrSpecularGlossiness"
  ],
  "images": [
    {
      "uri": "textures/material_0_diffuse.jpeg"
    },
    {
      "uri": "textures/material_0_specularGlossiness.png"
    },
    {
      "uri": "textures/material_0_occlusion.png"
    }
  ],
  "materials": [
    {
      "doubleSided": true,
      "emissiveFactor": [
        1.0,
        1.0,
        1.0
      ],
      "emissiveTexture": {
        "index": 0
      },
      "extensions": {
        "KHR_materials_pbrSpecularGlossiness": {
          "diffuseFactor": [
            0.8697738560965138,
            0.8697738560965138,
            0.8697738560965138,
            1.0
          ],
          "diffuseTexture": {
            "index": 0
          },
          "glossinessFactor": 1.0,
          "specularFactor": [
            0.7490850582235107,
            0.7490850582235107,
            0.7490850582235107
          ],
          "specularGlossinessTexture": {
            "index": 1,
            "texCoord": 1
          }
        }
      },
      "name": "material_0",
      "occlusionTexture": {
        "index": 2
      }
    }
  ],
  "meshes": [
    {
      "name": "Object_0",
      "primitives": [
        {
          "attributes": {
            "NORMAL": 1,
            "POSITION": 0,
            "TEXCOORD_0": 2,
            "TEXCOORD_1": 3,
            "TEXCOORD_2": 4,
            "TEXCOORD_3": 5
          },
          "indices": 6,
          "material": 0,
          "mode": 4
        }
      ]
    },
    {
      "name": "Object_1",
      "primitives": [
        {
          "attributes": {
            "NORMAL": 8,
            "POSITION": 7,
            "TEXCOORD_0": 9,
            "TEXCOORD_1": 10,
            "TEXCOORD_2": 11,
            "TEXCOORD_3": 12
          },
          "indices": 13,
          "material": 0,
          "mode": 4
        }
      ]
    },
    {
      "name": "Object_2",
      "primitives": [
        {
          "attributes": {
            "NORMAL": 15,
            "POSITION": 14,
            "TEXCOORD_0": 16,
            "TEXCOORD_1": 17,
            "TEXCOORD_2": 18,
            "TEXCOORD_3": 19
          },
          "indices": 20,
          "material": 0,
          "mode": 4
        }
      ]
    },
    {
      "name": "Object_3",
      "primitives": [
        {
          "attributes": {
            "NORMAL": 22,
            "POSITION": 21,
            "TEXCOORD_0": 23,
            "TEXCOORD_1": 24,
            "TEXCOORD_2": 25,
            "TEXCOORD_3": 26
          },
          "indices": 27,
          "material": 0,
          "mode": 4
        }
      ]
    },
    {
      "name": "Object_4",
      "primitives": [
        {
          "attributes": {
            "NORMAL": 29,
            "POSITION": 28,
            "TEXCOORD_0": 30,
            "TEXCOORD_1": 31,
            "TEXCOORD_2": 32,
            "TEXCOORD_3": 33
          },
          "indices": 34,
          "material": 0,
          "mode": 4
        }
      ]
    },
    {
      "name": "Object_5",
      "primitives": [
        {
          "attributes": {
            "NORMAL": 36,
            "POSITION": 35,
            "TEXCOORD_0": 37,
            "TEXCOORD_1": 38,
            "TEXCOORD_2": 39,
            "TEXCOORD_3": 40
          },
          "indices": 41,
          "material": 0,
          "mode": 4
        }
      ]
    }
  ],
  "nodes": [
    {
      "children": [
        1
      ],
      "matrix": [
        1.0,
        0.0,
        0.0,
        0.0,
        0.0,
        2.220446049250313e-16,
        -1.0,
        0.0,
        0.0,
        1.0,
        2.220446049250313e-16,
        0.0,
        0.0,
        0.0,
        0.0,
        1.0
      ],
      "name": "Sketchfab_model"
    },
    {
      "children": [
        2
      ],
      "name": "root"
    },
    {
      "children": [
        3
      ],
      "matrix": [
        1.0,
        0.0,
        0.0,
        0.0,
        0.0,
        2.220446049250313e-16,
        1.0,
        0.0,
        0.0,
        -1.0,
        2.220446049250313e-16,
        0.0,
        0.0,
        0.0,
        0.0,
        1.0
      ],
      "name": "GLTF_SceneRootNode"
    },
    {
      "children": [
        4,
        5,
        6,
        7,
        8,
        9
      ],
      "name": "_0"
    },
    {
      "mesh": 0,
      "name": "Object_4"
    },
    {
      "mesh": 1,
      "name": "Object_5"
    },
    {
      "mesh": 2,
      "name": "Object_6"
    },
    {
      "mesh": 3,
      "name": "Object_7"
    },
    {
      "mesh": 4,
      "name": "Object_8"
    },
    {
      "mesh": 5,
      "name": "Object_9"
    }
  ],
  "samplers": [
    {
      "magFilter": 9729,
      "minFilter": 9987,
      "wrapS": 10497,
      "wrapT": 10497
    }
  ],
  "scene": 0,
  "scenes": [
    {
      "name": "Sketchfab_Scene",
      "nodes": [
        0
      ]
    }
  ],
  "textures": [
    {
      "sampler": 0,
      "source": 0
    },
    {
      "sampler": 0,
      "source": 1
    },
    {
      "sampler": 0,
      "source": 2
    }
  ]
}
